<svg version="1.1" id="Layer_1" xmlns="http://www.w3.org/2000/svg" xmlns:xlink="http://www.w3.org/1999/xlink" x="0px" y="0px"
	 viewBox="0 0 136.417 282.094" enable-background="new 0 0 136.417 282.094"
	 xml:space="preserve" xmlns:pulse="-">
<path d="M45.92,19.313L45.92,19.313z M45.92,19.313c0.014,0.004,0.465,0.188,0.944,0.384l1.467,0.596
	c0.347,0.135,0.527,0.502,0.428,0.875c-0.12,0.466-0.677,0.907-1.873,0.747c-0.476-0.064-1.582-0.301-1.594-0.304l0.009,0.003
	c-0.027-0.009-0.692-0.249-1.105-0.029c-0.147,0.081-0.242,0.204-0.286,0.377c-0.155,0.621,0.484,0.837,0.489,0.84
	c0.229,0.081,0.482,0.14,0.686,0.181l0.17,0.045c0.013,0.001,1.465,0.345,2.615,0.33c0.757-0.01,2.594-0.183,3.313-1.501
	c0.106-0.193,0.253-0.871,0.18-1.301c-0.086-0.499-0.236-0.995-1.1-1.555c-0.219-0.14-0.9-0.367-1.504-0.567
	c-0.317-0.102-0.622-0.204-0.779-0.268c-1.059-0.427-1.247-0.815-1.265-1.009c-0.013-0.112,0.023-0.369,0.226-0.599
	c0.255-0.273,0.678-0.416,1.257-0.416c0.873,0,1.21,0.103,1.571,0.208c0.067,0.023,0.136,0.046,0.21,0.064
	c0.273,0.071,0.488,0.061,0.642-0.033c0.182-0.115,0.22-0.307,0.235-0.375c0.022-0.12,0.049-0.521-0.586-0.777
	c-0.051-0.021-1.349-0.525-3.393-0.242c-0.287,0.038-0.849,0.149-1.376,0.445c-0.773,0.423-1.175,1.087-1.161,1.909
	c0.01,0.595,0.287,1.12,0.804,1.529c0.385,0.305,0.764,0.437,0.781,0.441 M58.973,21.185c-1.191,0-2.168-0.972-2.168-2.166
	c0-1.197,0.977-2.168,2.168-2.168c1.194,0,2.167,0.971,2.167,2.168C61.14,20.213,60.168,21.185,58.973,21.185 M58.973,12.952
	c-3.352,0-6.064,2.714-6.064,6.066c0,3.349,2.712,6.066,6.064,6.066c3.352,0,6.068-2.717,6.068-6.066
	C65.041,15.666,62.325,12.952,58.973,12.952 M66.93,16.12c0,0-0.049-0.966,0.984-0.966c0.591,0,0.964,0.536,1.659,0.536
	c0.889,0,1.124-0.536,2.328-0.536c1.376,0,1.454,0.536,2.304,0.536c0.898,0,1.059-0.536,2.642-0.536c0.84,0,1.766,0.489,1.766,1.542
	c0,1.436,0.003,5.235,0.003,5.26c0,0.54-0.441,0.986-0.987,0.986c-0.543,0-0.985-0.445-0.985-0.986v-4.31
	c0-0.48,0.006-1.442-0.836-1.462c0,0-2.053-0.283-2.053,3.311c0,0.058,0.003,2.441,0.003,2.461c0,0.54-0.442,0.986-0.986,0.986
	c-0.534,0-0.971-0.426-0.985-0.956v-4.341c0-0.314,0.055-1.461-0.85-1.461c-1.748,0-2.037,1.786-2.037,3.253v2.52
	c0,0.54-0.442,0.986-0.986,0.986c-0.534,0-0.97-0.426-0.984-0.956 M84.505,18.296c0.014-0.454,0.381-0.805,0.839-0.805h-0.001h0.016
	h-0.017h1.069c0.347,0,0.623-0.101,0.82-0.301c0.311-0.31,0.322-0.765,0.322-0.851c0.001-0.118-0.016-0.501-0.296-0.783
	c-0.194-0.194-0.47-0.296-0.82-0.296H85.35c-0.737,0-0.737-0.169-0.737-0.615c0-0.01,0.022-0.916,0.748-1.173
	c0.23-0.085,0.488-0.124,0.762-0.126h1.308c0.455,0,0.863-0.304,0.992-0.739c0.029-0.096,0.044-0.195,0.044-0.294
	c0-0.57-0.467-1.033-1.035-1.033c-0.02,0-1.248,0.004-1.248,0.004c-0.172,0-0.357,0.011-0.549,0.03
	c-0.584,0.063-1.107,0.197-1.562,0.398c-1.912,0.847-2.002,2.578-2.002,2.596l-0.002,0.027c-0.095,0.599-0.252,0.924-0.82,0.924
	c-0.282,0-0.51,0.089-0.676,0.271c-0.292,0.311-0.282,0.794-0.282,0.801v-0.007c0,0.983,0.93,1.166,0.944,1.168
	c0.438,0.036,0.77,0.392,0.77,0.824c0,0.021-0.006,2.233-0.006,3.399c0,0.41,0.113,0.728,0.326,0.945
	c0.283,0.282,0.647,0.285,0.66,0.285h0.498c0.03,0,0.304-0.005,0.561-0.184c0.21-0.141,0.461-0.439,0.461-1.034 M91.625,21.494
	c0.074,0.161,0.112,0.336,0.112,0.519c0,0.966-0.537,1.382-0.798,1.6c-0.654,0.541-1.587,0.503-1.597,0.503h-0.507
	c-0.318,0-0.674,0.264-0.674,0.641c0,0.403,0.27,0.646,0.722,0.646h0.461c0.026,0,0.675,0.026,1.372-0.196
	c0.705-0.225,1.676-0.753,2.347-1.993c0.162-0.294,1.546-3.414,2.555-5.69l0.771-1.728c0.045-0.106,0.049-0.211,0.021-0.307
	c-0.033-0.107-0.113-0.197-0.23-0.259c-0.199-0.103-0.476-0.11-0.749-0.023c-0.281,0.09-0.517,0.275-0.609,0.482
	c-0.008,0.027-1.151,2.496-1.234,2.667c-0.224,0.446-0.493,0.705-0.739,0.705c-0.29,0-0.471-0.035-0.887-0.744
	c-0.031-0.055-1.282-2.261-1.481-2.606c-0.114-0.218-0.356-0.403-0.652-0.497c-0.296-0.093-0.602-0.089-0.816,0.023
	c-0.127,0.067-0.216,0.165-0.252,0.281c-0.032,0.103-0.024,0.219,0.025,0.335C88.793,15.876,91.465,21.16,91.625,21.494"/>
<path fill="none" stroke="#000000" stroke-width="0.216" stroke-miterlimit="22.9256" d="M45.92,19.313L45.92,19.313z M45.92,19.313
	c0.014,0.004,0.465,0.188,0.944,0.384l1.467,0.596c0.347,0.135,0.527,0.502,0.428,0.875c-0.12,0.466-0.677,0.907-1.873,0.747
	c-0.476-0.064-1.582-0.301-1.594-0.304l0.009,0.003c-0.027-0.009-0.692-0.249-1.105-0.029c-0.147,0.081-0.242,0.204-0.286,0.377
	c-0.155,0.621,0.484,0.837,0.489,0.84c0.229,0.081,0.482,0.14,0.686,0.181l0.17,0.045c0.013,0.001,1.465,0.345,2.615,0.33
	c0.757-0.01,2.594-0.183,3.313-1.501c0.106-0.193,0.253-0.871,0.18-1.301c-0.086-0.499-0.236-0.995-1.1-1.555
	c-0.219-0.14-0.9-0.367-1.504-0.567c-0.317-0.102-0.622-0.204-0.779-0.268c-1.059-0.427-1.247-0.815-1.265-1.009
	c-0.013-0.112,0.023-0.369,0.226-0.599c0.255-0.273,0.678-0.416,1.257-0.416c0.873,0,1.21,0.103,1.571,0.208
	c0.067,0.023,0.136,0.046,0.21,0.064c0.273,0.071,0.488,0.061,0.642-0.033c0.182-0.115,0.22-0.307,0.235-0.375
	c0.022-0.12,0.049-0.521-0.586-0.777c-0.051-0.021-1.349-0.525-3.393-0.242c-0.287,0.038-0.849,0.149-1.376,0.445
	c-0.773,0.423-1.175,1.087-1.161,1.909c0.01,0.595,0.287,1.12,0.804,1.529c0.385,0.305,0.764,0.437,0.781,0.441 M58.973,21.185
	c-1.191,0-2.168-0.972-2.168-2.166c0-1.197,0.977-2.168,2.168-2.168c1.194,0,2.167,0.971,2.167,2.168
	C61.14,20.213,60.168,21.185,58.973,21.185 M58.973,12.952c-3.352,0-6.064,2.714-6.064,6.066c0,3.349,2.712,6.066,6.064,6.066
	c3.352,0,6.068-2.717,6.068-6.066C65.041,15.666,62.325,12.952,58.973,12.952 M66.93,16.12c0,0-0.049-0.966,0.984-0.966
	c0.591,0,0.964,0.536,1.659,0.536c0.889,0,1.124-0.536,2.328-0.536c1.376,0,1.454,0.536,2.304,0.536
	c0.898,0,1.059-0.536,2.642-0.536c0.84,0,1.766,0.489,1.766,1.542c0,1.436,0.003,5.235,0.003,5.26c0,0.54-0.441,0.986-0.987,0.986
	c-0.543,0-0.985-0.445-0.985-0.986v-4.31c0-0.48,0.006-1.442-0.836-1.462c0,0-2.053-0.283-2.053,3.311
	c0,0.058,0.003,2.441,0.003,2.461c0,0.54-0.442,0.986-0.986,0.986c-0.534,0-0.971-0.426-0.985-0.956v-4.341
	c0-0.314,0.055-1.461-0.85-1.461c-1.748,0-2.037,1.786-2.037,3.253v2.52c0,0.54-0.442,0.986-0.986,0.986
	c-0.534,0-0.97-0.426-0.984-0.956 M84.505,18.296c0.014-0.454,0.381-0.805,0.839-0.805h-0.001h0.016h-0.017h1.069
	c0.347,0,0.623-0.101,0.82-0.301c0.311-0.31,0.322-0.765,0.322-0.851c0.001-0.118-0.016-0.501-0.296-0.783
	c-0.194-0.194-0.47-0.296-0.82-0.296H85.35c-0.737,0-0.737-0.169-0.737-0.615c0-0.01,0.022-0.916,0.748-1.173
	c0.23-0.085,0.488-0.124,0.762-0.126h1.308c0.455,0,0.863-0.304,0.992-0.739c0.029-0.096,0.044-0.195,0.044-0.294
	c0-0.57-0.467-1.033-1.035-1.033c-0.02,0-1.248,0.004-1.248,0.004c-0.172,0-0.357,0.011-0.549,0.03
	c-0.584,0.063-1.107,0.197-1.562,0.398c-1.912,0.847-2.002,2.578-2.002,2.596l-0.002,0.027c-0.095,0.599-0.252,0.924-0.82,0.924
	c-0.282,0-0.51,0.089-0.676,0.271c-0.292,0.311-0.282,0.794-0.282,0.801v-0.007c0,0.983,0.93,1.166,0.944,1.168
	c0.438,0.036,0.77,0.392,0.77,0.824c0,0.021-0.006,2.233-0.006,3.399c0,0.41,0.113,0.728,0.326,0.945
	c0.283,0.282,0.647,0.285,0.66,0.285h0.498c0.03,0,0.304-0.005,0.561-0.184c0.21-0.141,0.461-0.439,0.461-1.034 M91.625,21.494
	c0.074,0.161,0.112,0.336,0.112,0.519c0,0.966-0.537,1.382-0.798,1.6c-0.654,0.541-1.587,0.503-1.597,0.503h-0.507
	c-0.318,0-0.674,0.264-0.674,0.641c0,0.403,0.27,0.646,0.722,0.646h0.461c0.026,0,0.675,0.026,1.372-0.196
	c0.705-0.225,1.676-0.753,2.347-1.993c0.162-0.294,1.546-3.414,2.555-5.69l0.771-1.728c0.045-0.106,0.049-0.211,0.021-0.307
	c-0.033-0.107-0.113-0.197-0.23-0.259c-0.199-0.103-0.476-0.11-0.749-0.023c-0.281,0.09-0.517,0.275-0.609,0.482
	c-0.008,0.027-1.151,2.496-1.234,2.667c-0.224,0.446-0.493,0.705-0.739,0.705c-0.29,0-0.471-0.035-0.887-0.744
	c-0.031-0.055-1.282-2.261-1.481-2.606c-0.114-0.218-0.356-0.403-0.652-0.497c-0.296-0.093-0.602-0.089-0.816,0.023
	c-0.127,0.067-0.216,0.165-0.252,0.281c-0.032,0.103-0.024,0.219,0.025,0.335C88.793,15.876,91.465,21.16,91.625,21.494"/>
<path fill="none" stroke="#2B2A29" stroke-width="1.4173" stroke-miterlimit="22.9256" d="M4.394,0.709h127.63
	c2.027,0,3.685,1.658,3.685,3.685v260.932c0,1.157-0.611,1.972-1.452,2.648c-12.423,9.992-50.517,13.411-66.048,13.411
	c-14.552,0-55.276-3.464-66.171-13.8c-0.709-0.673-1.329-1.213-1.329-2.26V4.394C0.709,2.367,2.367,0.709,4.394,0.709z"/>
<path fill="none" stroke="#2B2A29" stroke-width="0.7087" stroke-miterlimit="22.9256" d="M1.634,1.958
	c24.582,37.953,43.511,54.211,63.952,55.653c1.867,0.132,3.222,0.128,5.036-0.015c21.128-1.675,39.62-17.584,64.088-55.638"/>
<path class="led" fill="none" stroke="#2B2A29" stroke-width="0.7087" stroke-miterlimit="22.9256" d="M65.115,30.369h5.979
	c0.624,0,1.134,0.51,1.134,1.134V91.11c0,0.226-0.067,0.437-0.182,0.615c-1.246-0.385-2.569-0.592-3.941-0.592
	c-1.372,0-2.695,0.207-3.941,0.592c-0.115-0.177-0.182-0.388-0.182-0.615V31.503C63.981,30.879,64.491,30.369,65.115,30.369z"/>
<circle pulse:initial="true" class="button" fill="none" stroke="#2B2A29" stroke-width="0.7087" stroke-miterlimit="22.9256" cx="68.104" cy="104.478" r="13.346"/>
<circle fill="none" stroke="#2B2A29" stroke-width="1.4173" stroke-miterlimit="22.9256" cx="68.209" cy="210.318" r="63.016"/>
<circle fill="none" stroke="#2B2A29" stroke-width="0.7087" stroke-miterlimit="22.9256" cx="68.209" cy="210.318" r="54.343"/>
<circle fill-rule="evenodd" clip-rule="evenodd" cx="44.578" cy="210.377" r="6.251"/>
<circle fill="none" stroke="#2B2A29" stroke-width="0.5669" stroke-miterlimit="22.9256" cx="44.578" cy="210.377" r="6.251"/>
<circle fill-rule="evenodd" clip-rule="evenodd" cx="91.279" cy="210.377" r="6.251"/>
<circle fill="none" stroke="#2B2A29" stroke-width="0.5669" stroke-miterlimit="22.9256" cx="91.279" cy="210.377" r="6.251"/>
<path fill="none" stroke="#000000" stroke-width="0.7087" stroke-miterlimit="22.9256" d="M23.523,204.669v-25.285
	c-5.079,7.322-8.404,15.953-9.368,25.285H23.523z"/>
<path fill="none" stroke="#000000" stroke-width="0.7087" stroke-miterlimit="22.9256" d="M23.523,215.968h-9.368
	c0.964,9.331,4.289,17.962,9.368,25.285V215.968z"/>
<path fill="none" stroke="#000000" stroke-width="0.7087" stroke-miterlimit="22.9256" d="M112.894,215.968v25.285
	c5.079-7.322,8.404-15.953,9.368-25.285H112.894z"/>
<path fill="none" stroke="#000000" stroke-width="0.7087" stroke-miterlimit="22.9256" d="M112.894,204.669h9.368
	c-0.964-9.331-4.289-17.962-9.368-25.285V204.669z"/>
<text transform="matrix(1 0 0 1 51.9921 132.8231)" fill="#2B2A29" font-family="'ArialNarrow-Bold'" font-size="10.408">ON/OFF</text>
</svg>
