<?xml version="1.0" standalone="no"?>
<!DOCTYPE svg PUBLIC "-//W3C//DTD SVG 20010904//EN"
 "http://www.w3.org/TR/2001/REC-SVG-20010904/DTD/svg10.dtd">
<svg version="1.0" xmlns="http://www.w3.org/2000/svg"
 width="1024.000000pt" height="278.000000pt" viewBox="0 0 1024.000000 278.000000"
 preserveAspectRatio="xMidYMid meet">
<metadata>
Created by potrace 1.12, written by Peter Selinger 2001-2015
</metadata>
<g transform="translate(0.000000,278.000000) scale(0.100000,-0.100000)"
fill="#000000" stroke="none">
<path d="M7836 2689 c-365 -39 -604 -234 -661 -541 -27 -148 -48 -174 -150
-189 -88 -12 -119 -30 -151 -86 -22 -37 -28 -59 -28 -108 0 -109 64 -184 184
-215 58 -16 94 -42 114 -84 14 -29 16 -82 16 -388 0 -224 4 -368 11 -393 27
-98 97 -144 218 -145 131 0 202 56 221 176 6 32 10 210 10 395 0 333 0 336 23
370 38 57 75 69 214 69 162 0 215 12 262 59 81 81 81 222 0 296 -52 47 -91 55
-267 55 -201 0 -212 5 -212 104 0 78 16 128 58 176 56 66 80 72 312 79 218 7
239 12 287 63 98 104 49 269 -92 307 -46 12 -251 12 -369 0z"/>
<path d="M2805 2384 c-128 -17 -191 -29 -260 -51 -274 -87 -517 -288 -653
-543 -202 -378 -168 -845 89 -1191 60 -82 195 -212 272 -262 126 -84 287 -149
437 -178 84 -16 296 -16 380 0 225 44 417 142 578 295 183 175 294 382 336
625 102 594 -301 1174 -893 1285 -83 16 -238 26 -286 20z m247 -751 c312 -146
312 -588 0 -736 -62 -30 -75 -32 -172 -32 -97 0 -110 2 -172 32 -254 120 -314
451 -119 652 85 87 175 122 306 118 77 -2 100 -7 157 -34z"/>
<path d="M645 2009 c-211 -31 -374 -129 -442 -268 -25 -49 -28 -68 -28 -151 0
-82 4 -103 26 -151 31 -65 87 -125 162 -173 29 -18 167 -80 307 -137 147 -59
267 -115 284 -130 25 -22 30 -35 34 -85 3 -50 0 -64 -20 -94 -75 -111 -213
-127 -518 -63 -212 45 -287 49 -324 14 -41 -38 -51 -84 -29 -128 26 -53 58
-72 164 -99 215 -55 484 -90 604 -79 236 21 386 78 492 187 134 136 144 350
25 506 -61 80 -163 133 -422 217 -156 51 -255 101 -314 157 -48 46 -49 48 -44
97 6 64 41 111 105 142 44 22 60 24 208 24 138 0 171 -3 238 -23 102 -31 151
-31 182 -2 29 27 39 68 26 102 -24 65 -112 107 -278 134 -96 15 -340 17 -438
3z"/>
<path d="M4475 1965 c-49 -18 -90 -62 -104 -112 -7 -25 -11 -236 -11 -599 l0
-560 25 -50 c40 -80 119 -117 201 -95 43 11 99 60 117 101 7 16 14 159 18 390
5 327 8 373 27 442 56 207 163 307 330 310 84 2 125 -19 156 -77 20 -39 21
-57 26 -540 5 -542 4 -528 62 -582 29 -28 89 -53 125 -53 45 0 112 39 141 83
l27 40 6 356 c6 317 9 365 28 438 56 220 172 336 338 337 80 0 113 -15 145
-71 31 -52 38 -160 38 -606 0 -482 0 -480 62 -532 86 -72 209 -49 265 50 l23
40 0 540 c0 522 -1 542 -21 585 -41 91 -123 149 -241 171 -93 17 -217 0 -369
-51 -113 -38 -131 -42 -199 -38 -53 4 -92 13 -135 33 -176 80 -328 83 -516 8
-82 -32 -105 -37 -180 -38 -80 0 -91 3 -175 42 -105 50 -154 59 -209 38z"/>
<path d="M8470 1963 c-19 -10 -41 -30 -50 -46 -15 -27 -10 -36 265 -585 l280
-557 0 -75 c0 -103 -24 -167 -88 -236 -95 -105 -187 -143 -362 -151 -60 -2
-123 -9 -138 -15 -43 -16 -67 -54 -67 -105 0 -96 80 -126 280 -105 305 32 505
176 642 462 93 194 598 1334 598 1350 0 55 -74 89 -156 71 -94 -21 -115 -50
-255 -355 -149 -324 -176 -361 -259 -361 -49 0 -55 3 -94 46 -22 25 -108 164
-191 309 -82 145 -160 276 -173 292 -54 64 -168 94 -232 61z"/>
<path d="M9888 960 c-58 -17 -97 -51 -124 -106 -23 -47 -26 -63 -21 -116 24
-263 410 -240 410 24 0 136 -135 237 -265 198z m151 -59 c90 -64 89 -217 -2
-285 -22 -16 -43 -21 -90 -21 -104 0 -160 58 -160 166 0 72 30 124 87 151 52
24 122 19 165 -11z"/>
<path d="M9880 760 c0 -93 1 -100 20 -100 17 0 20 7 20 40 0 51 13 51 42 0 13
-22 31 -40 41 -40 23 0 22 9 -9 54 l-26 38 21 19 c26 25 27 65 2 79 -11 5 -40
10 -65 10 l-46 0 0 -100z"/>
</g>
</svg>
